# Aspose.3D Wavefront OBJ Exporter
# Copyright 2004-2020 Aspose Pty Ltd.
# File created: 03/26/2021 12:20:53


#
# object obj_36272688
#

v 0.92247265577316288 -0.5 1.23761582374572752
v 0 0.19999998807907104 -1.00000011920928955
v -4.119968255444917E-17 -0.5 2
v 1.5 -0.5 -1
v -0.92247265577316288 -0.5 1.23761582374572752
v -1.5 -0.5 -1
v -8.239936510889834E-17 -0.5 -2.5
v -1.6812464478986009E-16 -1.19999992847442628 -1.00000011920928955
# 8 vertices

vn 0.18456913530826568 0.95711016654968256 0.2233256995677948
vn 0.4203888177871704 0.90083324909210208 0.1085021123290062
vn -0.18456913530826568 0.95711016654968256 0.2233256995677948
vn -0.4203888177871704 0.90083324909210208 0.1085021123290062
vn -0.3894904255867004 0.83462232351303104 -0.3894904255867004
vn 0.3894904255867004 0.83462232351303104 -0.3894904255867004
vn -0.18456913530826568 -0.95711016654968256 0.2233256995677948
vn -0.4203888177871704 -0.90083324909210208 0.1085021123290062
vn 0.18456913530826568 -0.95711016654968256 0.2233256995677948
vn 0.4203888177871704 -0.90083324909210208 0.1085021123290062
vn 0.3894904255867004 -0.83462232351303104 -0.3894904255867004
vn -0.3894904255867004 -0.83462232351303104 -0.3894904255867004
# 12 vertex normals

g obj_36272688
s 1
f 1//1 2//1 3//1
f 1//2 4//2 2//2
f 5//3 3//3 2//3
f 5//4 2//4 6//4
f 7//5 6//5 2//5
f 4//6 7//6 2//6
f 5//7 8//7 3//7
f 5//8 6//8 8//8
f 1//9 3//9 8//9
f 1//10 8//10 4//10
f 7//11 4//11 8//11
f 6//12 7//12 8//12
#12 polygons

