# WaveFront *.obj file (generated by Autodesk ATF)

mtllib d42827a8-f21f-4990-ac4a-40377cad58f8.mtl

g Body10

v -0.300000 0.687732 -0.400000
v -0.300000 0.672351 -0.272299
v -0.300000 0.510406 0.421751
v -0.300000 0.746014 0.476578
v -0.300000 0.950000 -0.400000
v -0.000000 0.565279 0.434520
v 0.300000 0.510406 0.421751
v 0.300000 0.746014 0.476578
v 0.300000 0.672351 -0.272299
v 0.300000 0.687732 -0.400000
v 0.300000 0.950000 -0.400000
v 1.015124 0.354008 -0.400000
v 1.115677 0.569644 -0.400000
v 1.042801 0.413360 -1.000000
v 1.115677 0.569644 -1.000000
v 0.300000 0.760000 -1.000000
v 0.300000 0.950000 -1.000000
v -0.300000 0.413360 -1.742801
v -0.300000 0.760000 -1.000000
v -0.300000 0.950000 -1.000000
v -0.300000 0.569644 -1.815677
v -1.015124 0.354007 -0.400000
v -1.115677 0.569644 -0.400000
v -1.042801 0.413360 -1.000000
v -1.115677 0.569644 -1.000000
v 0.300000 0.413360 -1.742801
v 0.300000 0.569644 -1.815677
v -0.000000 0.528339 -1.796416
v -1.500000 0.200000 -1.000000
v -0.922473 0.200000 1.237616
v -0.000000 0.200000 -2.500000
v 1.500000 0.200000 -1.000000
v -0.000000 0.200000 2.000000
v 0.922473 0.200000 1.237616
v -0.000000 -0.500000 -1.000000
vt 0.005944 -0.005544 0.000000
vt 0.018731 -0.004148 0.000000
vt 0.000000 0.020000 0.000000
vt 0.090000 0.020000 0.000000
vt 0.090000 -0.004190 0.000000
vt 0.000000 -0.004190 0.000000
vt 0.030000 0.001444 0.000000
vt 0.000000 0.020000 0.000000
vt 0.060000 0.020000 0.000000
vt 0.060000 -0.004190 0.000000
vt 0.000000 -0.004190 0.000000
vt 0.071269 -0.004148 0.000000
vt -0.000000 0.020000 0.000000
vt 0.090000 0.020000 0.000000
vt 0.084056 -0.005544 0.000000
vt 0.090000 -0.003793 0.000000
vt 0.090000 0.020000 0.000000
vt 0.011084 -0.003770 0.000000
vt 0.000000 0.020000 0.000000
vt -0.000000 -0.003793 0.000000
vt 0.060000 0.002756 0.000000
vt 0.000000 0.020000 0.000000
vt 0.060000 0.020000 0.000000
vt 0.000000 0.002756 0.000000
vt 0.081970 0.002780 0.000000
vt -0.000000 0.020000 0.000000
vt 0.090000 0.020000 0.000000
vt -0.000000 0.002756 0.000000
vt 0.081970 0.002780 0.000000
vt -0.000000 0.020000 0.000000
vt 0.090000 0.020000 0.000000
vt -0.094003 -0.089595 0.000000
vt -0.043295 -0.029127 0.000000
vt -0.112229 -0.074301 0.000000
vt -0.054378 -0.005357 0.000000
vt -0.030000 -0.030000 0.000000
vt 0.030000 -0.030000 0.000000
vt -0.030000 0.030000 0.000000
vt 0.030000 0.030000 0.000000
vt 0.090000 0.002756 0.000000
vt 0.090000 0.020000 0.000000
vt 0.008030 0.002780 0.000000
vt 0.000000 0.020000 0.000000
vt 0.060000 -0.003793 0.000000
vt 0.060000 0.020000 0.000000
vt 0.000000 0.002756 0.000000
vt 0.000000 0.020000 0.000000
vt 0.030000 0.045000 0.000000
vt -0.030000 0.045000 0.000000
vt 0.030000 -0.045000 0.000000
vt -0.030000 -0.045000 0.000000
vt 0.030000 0.045000 0.000000
vt -0.030000 0.045000 0.000000
vt 0.030000 -0.045000 0.000000
vt -0.030000 -0.045000 0.000000
vt 0.090000 0.002756 0.000000
vt 0.090000 0.020000 0.000000
vt 0.008030 0.002780 0.000000
vt -0.000000 0.020000 0.000000
vt 0.060000 0.002756 0.000000
vt 0.060000 0.020000 0.000000
vt 0.030000 0.015443 0.000000
vt 0.000000 0.020000 0.000000
vt -0.000000 0.002756 0.000000
vt -0.045000 -0.030000 0.000000
vt 0.045000 -0.030000 0.000000
vt -0.045000 0.030000 0.000000
vt 0.045000 0.030000 0.000000
vt 0.045000 0.030000 0.000000
vt -0.045000 0.030000 0.000000
vt 0.045000 -0.030000 0.000000
vt -0.045000 -0.030000 0.000000
vt -0.046603 -0.052189 0.000000
vt 0.032313 -0.052189 0.000000
vt -0.045952 -0.039343 0.000000
vt 0.030430 0.112545 0.000000
vt 0.082765 -0.112545 0.000000
vt 0.032311 -0.112545 0.000000
vt -0.049659 0.081431 0.000000
vt -0.035000 0.000782 0.000000
vt 0.032311 0.081431 0.000000
vt 0.082765 0.081431 0.000000
vt -0.053163 -0.081431 0.000000
vt -0.067048 -0.005040 0.000000
vt 0.067048 -0.005040 0.000000
vt 0.035000 0.000782 0.000000
vt 0.053163 -0.081431 0.000000
vt -0.082765 0.081431 0.000000
vt -0.032311 0.081431 0.000000
vt 0.049659 0.081431 0.000000
vt 0.045579 -0.006718 0.000000
vt 0.038662 0.153887 0.000000
vt 0.015082 -0.008028 0.000000
vt -0.051917 0.075673 0.000000
vt 0.018149 -0.079231 0.000000
vt 0.046603 -0.052189 0.000000
vt 0.045952 -0.039343 0.000000
vt -0.032313 -0.052189 0.000000
vt -0.030430 0.112545 0.000000
vt -0.082765 -0.112545 0.000000
vt -0.032311 -0.112545 0.000000
vt -0.018149 -0.079231 0.000000
vt 0.051917 0.075673 0.000000
vt -0.015082 -0.008028 0.000000
vt -0.038662 0.153887 0.000000
vt -0.045579 -0.006718 0.000000
vt 0.051917 -0.153887 0.000000
vt 0.038662 0.153887 0.000000
vt -0.030430 0.112545 0.000000
vt -0.082765 -0.112545 0.000000
vt 0.082765 -0.112545 0.000000
vt 0.051917 0.075673 0.000000
vt -0.038662 0.153887 0.000000
vt -0.051917 -0.153887 0.000000
vt 0.030430 0.112545 0.000000
vt -0.082765 -0.112545 0.000000
vt 0.082765 -0.112545 0.000000
vt -0.053163 -0.081431 0.000000
vt 0.082765 0.081431 0.000000
vt -0.082765 0.081431 0.000000
vt -0.082765 0.081431 0.000000
vt 0.053163 -0.081431 0.000000
vt 0.082765 0.081431 0.000000
vn -0.100000 0.000000 0.000000
vn -0.100000 0.000000 0.000000
vn -0.100000 0.000000 0.000000
vn -0.100000 0.000000 0.000000
vn -0.100000 0.000000 0.000000
vn 0.000000 -0.022665 0.097398
vn 0.000000 -0.022665 0.097398
vn 0.000000 -0.022665 0.097398
vn 0.000000 -0.022665 0.097398
vn 0.000000 -0.022665 0.097398
vn 0.100000 0.000000 0.000000
vn 0.100000 0.000000 0.000000
vn 0.100000 0.000000 0.000000
vn 0.100000 0.000000 0.000000
vn 0.100000 0.000000 0.000000
vn 0.000000 0.000000 0.100000
vn 0.000000 0.000000 0.100000
vn 0.000000 0.000000 0.100000
vn 0.000000 0.000000 0.100000
vn 0.090631 -0.042262 0.000000
vn 0.090631 -0.042262 0.000000
vn 0.090631 -0.042262 0.000000
vn 0.090631 -0.042262 0.000000
vn -0.000000 0.000000 -0.100000
vn -0.000000 0.000000 -0.100000
vn -0.000000 0.000000 -0.100000
vn -0.000000 0.000000 -0.100000
vn -0.100000 -0.000000 0.000000
vn -0.100000 -0.000000 0.000000
vn -0.100000 -0.000000 0.000000
vn -0.100000 -0.000000 0.000000
vn 0.000000 0.000000 0.100000
vn 0.000000 0.000000 0.100000
vn 0.000000 0.000000 0.100000
vn 0.000000 0.000000 0.100000
vn 0.000000 0.100000 0.000000
vn 0.000000 0.100000 0.000000
vn 0.000000 0.100000 0.000000
vn 0.000000 0.100000 0.000000
vn -0.000000 -0.000000 -0.100000
vn -0.000000 -0.000000 -0.100000
vn -0.000000 -0.000000 -0.100000
vn -0.000000 -0.000000 -0.100000
vn -0.090631 -0.042262 0.000000
vn -0.090631 -0.042262 0.000000
vn -0.090631 -0.042262 0.000000
vn -0.090631 -0.042262 0.000000
vn -0.042262 0.090631 0.000000
vn -0.042262 0.090631 0.000000
vn -0.042262 0.090631 0.000000
vn -0.042262 0.090631 0.000000
vn 0.042262 0.090631 0.000000
vn 0.042262 0.090631 0.000000
vn 0.042262 0.090631 0.000000
vn 0.042262 0.090631 0.000000
vn 0.100000 0.000000 -0.000000
vn 0.100000 0.000000 -0.000000
vn 0.100000 0.000000 -0.000000
vn 0.100000 0.000000 -0.000000
vn 0.000000 -0.042262 -0.090631
vn 0.000000 -0.042262 -0.090631
vn 0.000000 -0.042262 -0.090631
vn 0.000000 -0.042262 -0.090631
vn 0.000000 -0.042262 -0.090631
vn -0.000000 0.090631 -0.042262
vn -0.000000 0.090631 -0.042262
vn -0.000000 0.090631 -0.042262
vn -0.000000 0.090631 -0.042262
vn 0.000000 0.097398 0.022665
vn 0.000000 0.097398 0.022665
vn 0.000000 0.097398 0.022665
vn 0.000000 0.097398 0.022665
vn -0.042039 0.090083 0.010850
vn -0.042039 0.090083 0.010850
vn -0.042039 0.090083 0.010850
vn -0.042039 0.090083 0.010850
vn -0.042039 0.090083 0.010850
vn -0.042039 0.090083 0.010850
vn -0.038949 0.083462 -0.038949
vn -0.038949 0.083462 -0.038949
vn -0.038949 0.083462 -0.038949
vn -0.038949 0.083462 -0.038949
vn -0.038949 0.083462 -0.038949
vn -0.038949 0.083462 -0.038949
vn 0.038949 0.083462 -0.038949
vn 0.038949 0.083462 -0.038949
vn 0.038949 0.083462 -0.038949
vn 0.038949 0.083462 -0.038949
vn 0.038949 0.083462 -0.038949
vn 0.038949 0.083462 -0.038949
vn 0.018457 0.095711 0.022333
vn 0.018457 0.095711 0.022333
vn 0.018457 0.095711 0.022333
vn 0.018457 0.095711 0.022333
vn 0.018457 0.095711 0.022333
vn 0.042039 0.090083 0.010850
vn 0.042039 0.090083 0.010850
vn 0.042039 0.090083 0.010850
vn 0.042039 0.090083 0.010850
vn 0.042039 0.090083 0.010850
vn 0.042039 0.090083 0.010850
vn -0.018457 0.095711 0.022333
vn -0.018457 0.095711 0.022333
vn -0.018457 0.095711 0.022333
vn -0.018457 0.095711 0.022333
vn -0.018457 0.095711 0.022333
vn -0.018457 -0.095711 0.022333
vn -0.018457 -0.095711 0.022333
vn -0.018457 -0.095711 0.022333
vn -0.042039 -0.090083 0.010850
vn -0.042039 -0.090083 0.010850
vn -0.042039 -0.090083 0.010850
vn 0.018457 -0.095711 0.022333
vn 0.018457 -0.095711 0.022333
vn 0.018457 -0.095711 0.022333
vn 0.042039 -0.090083 0.010850
vn 0.042039 -0.090083 0.010850
vn 0.042039 -0.090083 0.010850
vn 0.038949 -0.083462 -0.038949
vn 0.038949 -0.083462 -0.038949
vn 0.038949 -0.083462 -0.038949
vn -0.038949 -0.083462 -0.038949
vn -0.038949 -0.083462 -0.038949
vn -0.038949 -0.083462 -0.038949
usemtl Steel_-_Satin
f 1/1/1 2/2/2 5/3/3
f 5/3/3 2/2/2 4/4/4
f 4/4/4 2/2/2 3/5/5
f 3/6/6 6/7/7 4/8/8
f 4/8/8 6/7/7 8/9/9
f 8/9/9 6/7/7 7/10/10
f 7/11/11 9/12/12 8/13/13
f 8/13/13 9/12/12 11/14/14
f 11/14/14 9/12/12 10/15/15
f 12/16/16 13/17/17 10/18/18
f 10/18/18 13/17/17 11/19/19
f 12/20/20 14/21/21 13/22/22
f 13/22/22 14/21/21 15/23/23
f 14/24/24 16/25/25 15/26/26
f 15/26/26 16/25/25 17/27/27
f 18/28/28 19/29/29 21/30/30
f 21/30/30 19/29/29 20/31/31
f 22/32/32 1/33/33 23/34/34
f 23/34/34 1/33/33 5/35/35
f 20/36/36 5/37/37 17/38/38
f 17/38/38 5/37/37 11/39/39
f 24/40/40 25/41/41 19/42/42
f 19/42/42 25/41/41 20/43/43
f 22/44/44 23/45/45 24/46/46
f 24/46/46 23/45/45 25/47/47
f 5/48/48 20/49/49 23/50/50
f 23/50/50 20/49/49 25/51/51
f 13/52/52 15/53/53 11/54/54
f 11/54/54 15/53/53 17/55/55
f 26/56/56 27/57/57 16/58/58
f 16/58/58 27/57/57 17/59/59
f 18/60/60 21/61/61 28/62/62
f 28/62/62 21/61/61 27/63/63
f 28/62/62 27/63/63 26/64/64
f 21/65/65 20/66/66 27/67/67
f 27/67/67 20/66/66 17/68/68
f 8/69/69 11/70/70 4/71/71
f 4/71/71 11/70/70 5/72/72
f 1/73/73 22/74/74 2/75/75
f 2/75/75 22/74/74 30/76/76
f 30/76/76 22/74/74 29/77/77
f 29/77/77 22/74/74 24/78/78
f 19/79/79 18/80/80 24/81/81
f 24/81/81 18/80/80 29/82/82
f 29/82/82 18/80/80 31/83/83
f 31/83/83 18/80/80 28/84/84
f 28/85/85 26/86/86 31/87/87
f 31/87/87 26/86/86 32/88/88
f 32/88/88 26/86/86 14/89/89
f 14/89/89 26/86/86 16/90/90
f 6/91/91 33/92/92 7/93/93
f 7/93/93 33/92/92 34/94/94
f 7/93/93 34/94/94 9/95/95
f 10/96/96 9/97/97 12/98/98
f 12/98/98 9/97/97 34/99/99
f 12/98/98 34/99/99 32/100/100
f 32/100/100 14/101/101 12/98/98
f 2/102/102 30/103/103 3/104/104
f 3/104/104 30/103/103 33/105/105
f 3/104/104 33/105/105 6/106/106
f 30/103/107 35/107/108 33/108/109
f 30/109/110 29/110/111 35/111/112
f 34/112/113 33/113/114 35/114/115
f 34/115/116 35/116/117 32/117/118
f 31/118/119 32/119/120 35/120/121
f 29/121/122 31/122/123 35/123/124

# 35 vertices
# 123 texture params
# 124 normals
# 66 facets

# 1 groups
